<?xml version="1.0" encoding="UTF-8"?><svg id="Layer_1" xmlns="http://www.w3.org/2000/svg" viewBox="0 0 48 48"><defs><style>.cls-1{fill:#f7d4c3;stroke-width:0px;}</style></defs><path class="cls-1" d="M0,22.46c.13-.91.21-1.82.38-2.72.99-5.4,3.56-9.92,7.61-13.61.09-.08.19-.16.35-.29,2.66,8.2,5.31,16.35,7.98,24.55H.82c-.21-1.14-.43-2.3-.63-3.46C.11,26.44.06,25.94,0,25.45c0-1,0-2,0-2.99Z"/><path class="cls-1" d="M25.17,0c.97.12,1.95.21,2.91.38,2.84.48,5.49,1.47,7.98,2.93.09.05.18.12.32.21-6.96,5.06-13.9,10.1-20.88,15.17-.07-.17-.12-.29-.16-.41-1.5-4.6-2.99-9.2-4.5-13.8-.11-.34-.07-.51.24-.71C14.52,1.61,18.24.36,22.28.08c.15-.01.3-.05.46-.08.81,0,1.62,0,2.43,0Z"/><path class="cls-1" d="M46.38,32.3c-3.38,9.33-12.34,15.08-20.45,15.48,2.65-8.16,5.3-16.31,7.97-24.54,4.18,3.03,8.31,6.04,12.48,9.06Z"/><path class="cls-1" d="M26.35,14.28c4.19-3.04,8.32-6.04,12.49-9.07,3.9,3.16,6.61,7.1,8.06,11.89,1.23,4.07,1.33,8.17.37,12.38-7-5.08-13.93-10.12-20.92-15.2Z"/><path class="cls-1" d="M1.87,33.22h25.82c-.05.17-.08.31-.13.46-1.49,4.59-2.98,9.17-4.47,13.76-.09.28-.16.48-.56.45-6.59-.49-12.1-3.18-16.52-8.08-1.74-1.93-3.11-4.12-4.14-6.59Z"/></svg>